<?xml version="1.0" encoding="UTF-8"?>
<!DOCTYPE svg PUBLIC "-//W3C//DTD SVG 20010904//EN"
 "http://www.w3.org/TR/2001/REC-SVG-20010904/DTD/svg10.dtd">
<svg version="1.0" xmlns="http://www.w3.org/2000/svg"
 width="346.000000pt" height="350.000000pt" viewBox="0 0 346.000000 350.000000"
 preserveAspectRatio="xMidYMid meet">
<metadata>
Created by potrace 1.16, written by Peter Selinger 2001-2019
</metadata>
<g transform="translate(0.000000,350.000000) scale(0.100000,-0.100000)"
fill="#000000" stroke="none">
<path d="M247 3429 c-77 -18 -132 -61 -171 -134 l-21 -40 -3 -1479 c-3 -1636
-6 -1547 61 -1623 17 -20 54 -47 82 -59 l50 -24 1480 0 c1411 0 1482 1 1520
19 59 27 101 66 127 119 l23 47 0 1490 c0 1236 -2 1497 -14 1529 -18 53 -77
115 -131 140 -45 21 -47 21 -1505 23 -835 0 -1476 -3 -1498 -8z m674 -575 c67
-20 148 -97 167 -160 40 -137 -17 -271 -140 -324 -149 -64 -313 -17 -383 111
-24 45 -29 65 -29 124 0 120 62 207 177 246 65 23 137 24 208 3z m1544 -699
c147 -38 272 -140 338 -275 77 -157 87 -254 87 -837 l0 -423 -254 0 -255 0 -3
463 c-4 502 -5 511 -63 599 -36 54 -109 88 -190 88 -105 -1 -190 -55 -243
-155 l-27 -50 -3 -472 -3 -473 -252 0 -252 0 3 757 3 758 249 3 250 2 0 -106
0 -106 38 49 c73 92 140 138 252 174 71 23 242 25 325 4z m-1395 -775 l0 -760
-255 0 -255 0 0 760 0 760 255 0 255 0 0 -760z"/>
</g>
</svg>
